<svg xmlns="http://www.w3.org/2000/svg" viewBox="0 0 24 24">
  <path
    d="m8 0h8v0.85547h1.7773v0.85938h0.89062v0.85547h0.88672v0.85938h0.89062v0.85547h0.88672v0.85938h0.89062v1.7109h0.88672v1.7148h0.89062v7.7148h-0.89062v1.7148h-0.88672v0.85547h-0.89062v0.85938h-0.88672v0.85547h-0.89062v0.85938h-0.88672v0.85547h-0.89062v0.85938h-0.88672v0.85547h-1.7812v-5.1445h-0.88672v-0.85547h-0.89062v-0.85547h3.5586v-0.85938h0.88672v-0.85547h0.89062v-0.85938h0.88672v-5.1406h-0.88672v-0.85938h-0.89062v-0.85547h0.89062v-2.5703h-2.668v0.85547h-0.89062v0.85547h-0.88672v-0.85547h-4.4453v0.85547h-0.88672v-0.85547h-0.89062v-0.85547h-2.668v2.5703h0.89062v0.85547h-0.89062v0.85938h-0.88672v5.1406h0.88672v0.85938h0.89062v0.85547h0.88672v0.85938h3.5586v0.85547h-0.89062v0.85547h-0.88672v0.85938h-1.7812v-0.85938h-0.88672v-0.85547h-0.89062v-0.85547h-1.7773v0.85547h0.89062v0.85547h0.88672v0.85938h0.89062v0.85547h3.5547v3.4297h-1.7773v-0.85547h-1.7773v-0.85938h-0.89062v-0.85547h-0.88672v-0.85938h-0.89062v-0.85547h-0.88672v-0.85938h-0.89062v-0.85547h-0.88672v-1.7148h-0.89062v-7.7148h0.89062v-1.7148h0.88672v-1.7109h0.89062v-0.85938h0.88672v-0.85547h0.89062v-0.85938h0.88672v-0.85547h0.89062v-0.85938h1.7773z"
    fill="currentColor" />
</svg>
