<svg xmlns="http://www.w3.org/2000/svg" viewBox="0 0 24 24">
  <g>
    <path
      d="m7.9727 0h8.0547v1.9922h3.9883v1.9922h1.9922v3.9883h1.9922v7.9727h-1.9922v3.9844h-1.9922v1.9961h-3.9883v1.9922h-8.0547v-1.9922h-3.9883v-1.9961h-1.9922v-3.9844h-1.9922v-7.9727h1.9922v-3.9883h1.9922v-1.9922h3.9883z"
      fill="#b50400" />
    <path
      d="m7.9727 0h8.0547v1.9922h3.9883v1.9922h1.9922v3.9883h1.9922v7.9727h-1.9922v3.9844h-1.9922v1.9961h-3.9883v1.9922h-8.0547v-1.9922h7.9727v-1.9961h3.9844v-3.9844h-5.9766v-3.9883h1.9922v1.9961h3.9844v-1.9961h1.9961v-3.9844h-1.9961v-3.9883h-3.9844v-1.9922h-7.9727z" />
    <path d="m9.9648 11.957h3.9883v3.9883h5.9766v3.9844h-3.9844v1.9961h-11.961v-5.9805h5.9805z" fill="#a8a8a8" />
    <path
      d="m0 7.9727h1.9922v3.9844h1.9922v1.9961h3.9883v-1.9961h1.9922v3.9883h-5.9805v3.9844h-1.9922v-3.9844h-1.9922z" />
    <path d="m7.9727 3.9844h5.9805v1.9961h1.9922v3.9844h-7.9727v-1.9922h-1.9922v-1.9922h1.9922z" fill="#d60600" />
    <path
      d="m3.9844 5.9805h1.9961v1.9922h1.9922v1.9922h1.9922v1.9922h-1.9922v1.9961h-3.9883v-1.9961h-1.9922v-3.9844h1.9922z"
      fill="#d60600" />
    <path d="m3.9844 15.945h5.9805v1.9922h1.9922v1.9922h-7.9727z" fill="#fff" />
    <path d="m7.9727 3.9844h1.9922v1.9961h1.9922v1.9922h-1.9922v1.9922h-1.9922v-1.9922h-1.9922v-1.9922h1.9922z"
      fill="#fff" />
    <path d="m13.953 11.957h1.9922v1.9961h3.9844v1.9922h-5.9766z" />
    <path d="m9.9648 11.957h3.9883v3.9883h-3.9883z" fill="#a8a8a8" />
    <path d="m7.9727 11.957h1.9922v3.9883h-5.9805v-1.9922h3.9883z" />
    <path d="m1.9922 3.9844h5.9805v1.9961h-3.9883v1.9922h-1.9922z" fill="#d60600" />
    <path d="m3.9844 19.93h3.9883v1.9961h-3.9883z" />
    <path d="m9.9648 15.945h3.9883v1.9922h-3.9883z" />
    <path d="m1.9922 15.945h1.9922v3.9844h-1.9922z" />
    <path d="m9.9648 9.9648h3.9883v1.9922h-3.9883z" />
    <path d="m1.9922 3.9844h1.9922v3.9883h-1.9922z" />
    <path d="m3.9844 1.9922h3.9883v1.9922h-3.9883z" />
    <path d="m3.9844 17.938h1.9961v1.9922h-1.9961z" fill="#a8a8a8" />
    <path d="m19.93 13.953h1.9961v1.9922h-1.9961z" fill="#a8a8a8" />
    <path d="m1.9922 13.953h1.9922v1.9922h-1.9922z" fill="#fff" />
    <path d="m17.938 11.957h1.9922v1.9961h-1.9922z" fill="#960400" />
    <path d="m9.9648 11.957h1.9922v1.9961h-1.9922z" fill="#fff" />
    <path d="m7.9727 7.9727h1.9922v1.9922h-1.9922z" fill="#ff9894" />
    <path d="m1.9922 7.9727h1.9922v1.9922h-1.9922z" fill="#ba0500" />
    <path d="m9.9648 5.9805h1.9922v1.9922h-1.9922z" fill="#ff9894" />
    <path d="m5.9805 5.9805h1.9922v1.9922h-1.9922z" fill="#ff9894" />
    <path d="m17.938 3.9844h1.9922v1.9961h-1.9922z" fill="#960400" />
    <path d="m7.9727 3.9844h1.9922v1.9961h-1.9922z" fill="#ff9894" />
    <path d="m3.9844 3.9844h1.9961v1.9961h-1.9961z" fill="#ba0500" />
  </g>
</svg>
