<svg width="32px" height="32px" version="1.1" viewBox="0 0 32 33" xmlns="http://www.w3.org/2000/svg">
  <g>
    <path
      d="m8.4219 0h3.3672v8.25h3.3672v-1.6484h3.3711v-1.6523h5.0508v-1.6484h1.6836v-1.6523h1.6875v-1.6484h1.6836v1.6484h1.6836v1.6523h1.6836v3.3008h-1.6836v1.6484h-1.6836v1.6484h-1.6836v1.6523h1.6836v3.3008h-1.6836v1.6484h-1.6875v1.6484h-1.6836v8.25h-1.6836v4.9531h-1.6836v1.6484h-5.0547v-1.6484h-1.6836v-1.6523h-1.6836v-1.6484h-8.4219v-3.3008h1.6836v-1.6484h-1.6836v-1.6523h-1.6836v-1.6484h1.6836v-1.6523h-1.6836v-1.6484h-1.6836v-4.9492h1.6836v-1.6523h1.6836v-1.6484h1.6836v-3.3008h1.6875v-3.3008h1.6836zm11.789 11.551v3.3008h3.3672v-1.6523h-1.6836v-1.6484z"
      fill="#c4b22b" />
    <path
      d="m8.4219 0h3.3672v8.25h6.7383v8.25h-1.6836v1.6484h-1.6875v-1.6484h-3.3672v-1.6484h-1.6836v1.6484h-1.6836v1.6484h3.3672v1.6523h-5.0508v-1.6523h-5.0547v-1.6484h-1.6836v-4.9492h1.6836v-1.6523h1.6836v-1.6484h1.6836v-3.3008h1.6875v-3.3008h1.6836z"
      fill="#ffeb3b" />
    <path
      d="m26.949 0h1.6836v1.6484h1.6836v1.6523h1.6836v3.3008h-1.6836v1.6484h-1.6836v1.6484h-1.6836v1.6523h1.6836v3.3008h-1.6836v1.6484h-1.6875v1.6484h-1.6836v8.25h-1.6836v-3.2969h-1.6836v-1.6523h1.6836v-1.6484h-3.3672v-1.6523h1.6836v-3.2969h-1.6836v-6.6016h-3.3711v-1.6484h3.3711v-1.6523h5.0508v-1.6484h1.6836v-1.6523h1.6875zm-6.7383 11.551v3.3008h3.3672v-1.6523h-1.6836v-1.6484z"
      fill="#c4b22b" />
    <path d="m18.527 4.9492h5.0508v3.3008h-1.6836v3.3008h-1.6836v3.3008h-1.6836v-6.6016h-3.3711v-1.6484h3.3711z"
      fill="#2e2d2e" />
    <path
      d="m20.211 14.852h3.3672v1.6484h1.6836v1.6484h-1.6836v8.25h-1.6836v-3.2969h-1.6836v-1.6523h1.6836v-1.6484h-3.3672v-1.6523h1.6836z"
      fill="#2e2d2e" />
    <path d="m3.3672 21.449h3.3711v3.3008h1.6836v1.6484h3.3672v1.6523h-8.4219v-3.3008h1.6836v-1.6484h-1.6836z"
      fill="#2e2d2e" />
    <path d="m6.7383 21.449h8.418v1.6523h-1.6836v1.6484h-6.7344z" fill="#ffeb3b" />
    <path d="m8.4219 0h3.3672v8.25h-1.6836v-4.9492h-1.6836v1.6484h-1.6836v-3.3008h1.6836z" />
    <path d="m21.895 18.148h1.6836v8.25h-1.6836v-3.2969h-1.6836v-1.6523h1.6836z" />
    <path d="m10.105 14.852h1.6836v1.6484h3.3672v1.6484h-1.6836v1.6523h-1.6836v-1.6523h-3.3672v-1.6484h1.6836z"
      fill="#f44336" />
    <path d="m20.211 8.25h1.6836v3.3008h-1.6836v3.3008h-1.6836v-4.9531h1.6836z" />
    <path d="m11.789 28.051h5.0547v1.6484h-1.6875v1.6523h-1.6836v-1.6523h-1.6836z" fill="#2e2d2e" />
    <path d="m20.211 26.398h1.6836v4.9531h-1.6836v-1.6523h-1.6836v-1.6484h1.6836z" fill="#2e2d2e" />
    <path d="m0 11.551h1.6836v1.6484h1.6836v1.6523h-1.6836v1.6484h-1.6836z" />
    <path d="m18.527 4.9492h5.0508v3.3008h-1.6836v-1.6484h-3.3672z" />
    <path d="m26.949 0h1.6836v1.6484h1.6836v1.6523h-5.0547v-1.6523h1.6875z" fill="#ffeb3b" />
    <path d="m15.156 31.352h5.0547v1.6484h-5.0547z" fill="#2e2d2e" />
    <path d="m15.156 29.699h5.0547v1.6523h-5.0547z" fill="#ffeb3b" />
    <path d="m3.3672 21.449h3.3711v3.3008h-1.6875v-1.6484h-1.6836z" />
    <path d="m10.105 14.852h1.6836v3.2969h-3.3672v-1.6484h1.6836z" />
    <path d="m21.895 23.102h1.6836v3.2969h-1.6836z" fill="#2e2d2e" />
    <path d="m1.6836 19.801h3.3672v1.6484h-3.3672z" fill="#ffeb3b" />
    <path d="m18.527 18.148h3.3672v1.6523h-3.3672z" fill="#2e2d2e" />
    <path d="m20.211 14.852h1.6836v3.2969h-1.6836z" />
    <path d="m26.949 11.551h1.6836v3.3008h-1.6836z" fill="#2e2d2e" />
    <path d="m11.789 8.25h3.3672v1.6484h-3.3672z" />
    <path d="m15.156 6.6016h3.3711v1.6484h-3.3711z" />
    <path d="m5.0508 4.9492h1.6875v3.3008h-1.6875z" />
    <path d="m30.316 3.3008h1.6836v3.3008h-1.6836z" />
    <path d="m23.578 3.3008h3.3711v1.6484h-3.3711z" fill="#ffeb3b" />
    <path d="m6.7383 1.6484h1.6836v3.3008h-1.6836z" />
    <path d="m18.527 29.699h1.6836v1.6523h-1.6836z" fill="#c4b22b" />
    <path d="m15.156 24.75h1.6875v1.6484h-1.6875z" />
    <path d="m5.0508 24.75h1.6875v1.6484h-1.6875z" fill="#c4b22b" />
    <path d="m13.473 23.102h1.6836v1.6484h-1.6836z" />
    <path d="m6.7383 23.102h1.6836v1.6484h-1.6836z" fill="#c4b22b" />
    <path d="m5.0508 23.102h1.6875v1.6484h-1.6875z" fill="#2e2d2e" />
    <path d="m20.211 21.449h1.6836v1.6523h-1.6836z" fill="#2e2d2e" />
    <path d="m15.156 21.449h1.6875v1.6523h-1.6875z" />
    <path d="m1.6836 19.801h1.6836v1.6484h-1.6836z" />
    <path d="m3.3672 18.148h1.6836v1.6523h-1.6836z" />
    <path d="m1.6836 16.5h1.6836v1.6484h-1.6836z" />
    <path d="m25.262 14.852h1.6875v1.6484h-1.6875z" fill="#2e2d2e" />
    <path d="m23.578 14.852h1.6836v1.6484h-1.6836z" fill="#c4b22b" />
    <path d="m8.4219 14.852h1.6836v1.6484h-1.6836z" fill="#fff" />
    <path d="m23.578 13.199h1.6836v1.6523h-1.6836z" fill="#2e2d2e" />
    <path d="m26.949 11.551h1.6836v1.6484h-1.6836z" />
    <path d="m21.895 11.551h1.6836v1.6484h-1.6836z" />
    <path d="m16.844 11.551h1.6836v1.6484h-1.6836z" fill="#c4b22b" />
    <path d="m1.6836 11.551h1.6836v1.6484h-1.6836z" fill="#fff" />
    <path d="m25.262 9.8984h1.6875v1.6523h-1.6875z" />
    <path d="m1.6836 9.8984h1.6836v1.6523h-1.6836z" />
    <path d="m26.949 8.25h1.6836v1.6484h-1.6836z" />
    <path d="m3.3672 8.25h1.6836v1.6484h-1.6836z" />
    <path d="m28.633 6.6016h1.6836v1.6484h-1.6836z" />
    <path d="m8.4219 6.6016h1.6836v1.6484h-1.6836z" fill="#c4b22b" />
    <path d="m23.578 4.9492h1.6836v1.6523h-1.6836z" fill="#ffeb3b" />
    <path d="m23.578 3.3008h1.6836v1.6484h-1.6836z" />
    <path d="m28.633 1.6484h1.6836v1.6523h-1.6836z" />
    <path d="m25.262 1.6484h1.6875v1.6523h-1.6875z" />
    <path d="m8.4219 1.6484h1.6836v1.6523h-1.6836z" fill="#2e2d2e" />
    <path d="m26.949 0h1.6836v1.6484h-1.6836z" />
  </g>
</svg>
